<?xml version="1.0" standalone="no"?>
<!DOCTYPE svg PUBLIC "-//W3C//DTD SVG 20010904//EN"
 "http://www.w3.org/TR/2001/REC-SVG-20010904/DTD/svg10.dtd">
<svg version="1.0" xmlns="http://www.w3.org/2000/svg"
 width="512.000000pt" height="512.000000pt" viewBox="0 0 512.000000 512.000000"
 preserveAspectRatio="xMidYMid meet">

<g transform="translate(0.000000,512.000000) scale(0.100000,-0.100000)"
fill="#000000" stroke="none">
<path d="M1273 5104 c-57 -20 -127 -99 -142 -158 -8 -32 -11 -393 -11 -1265
l0 -1220 23 -27 c28 -32 78 -37 105 -10 16 15 17 106 22 1257 l5 1241 28 24
28 24 1219 0 1219 0 3 -444 3 -444 30 -43 c17 -24 50 -57 74 -74 l43 -30 444
-3 444 -3 0 -1860 0 -1861 -29 -29 -29 -29 -1710 0 c-1706 0 -1709 0 -1735 20
-16 13 -29 35 -33 58 -12 71 -70 103 -121 67 -51 -36 -35 -138 34 -215 79 -87
-88 -81 1873 -78 l1735 3 46 27 c56 33 106 104 114 162 3 22 5 885 3 1916 l-3
1875 -24 50 c-36 75 -984 1024 -1056 1057 l-50 23 -1255 2 c-1095 1 -1260 0
-1297 -13z m3042 -634 l390 -390 -368 0 -368 0 -24 25 -25 24 0 366 c0 201 1
365 3 365 1 0 178 -175 392 -390z"/>
<path d="M1865 3671 c-69 -17 -125 -63 -161 -131 -18 -33 -19 -70 -22 -556
l-3 -522 23 -26 c58 -64 125 -32 135 67 l6 57 278 0 279 0 0 -51 c0 -43 5 -55
29 -80 37 -37 65 -37 102 0 24 25 29 37 29 80 l0 51 485 0 485 0 0 -699 0
-700 27 -21 c26 -21 34 -21 347 -18 309 3 323 4 362 25 61 33 111 96 124 157
8 36 10 370 8 1126 l-3 1075 -22 40 c-25 47 -64 85 -113 111 -34 18 -84 19
-1200 21 -641 0 -1178 -2 -1195 -6z m535 -306 l0 -165 -285 0 -285 0 0 113 c0
61 5 129 11 150 17 62 36 66 317 67 l242 0 0 -165z m1128 -2 l2 -163 -485 0
-485 0 0 165 0 165 483 -2 482 -3 3 -162z m661 156 c51 -18 61 -51 61 -194 l0
-125 -285 0 -285 0 0 165 0 165 239 0 c148 0 250 -4 270 -11z m-1789 -639 l0
-160 -280 0 -280 0 0 160 0 160 280 0 280 0 0 -160z m1130 0 l0 -160 -485 0
-485 0 0 160 0 160 485 0 485 0 0 -160z m720 0 l0 -160 -285 0 -285 0 0 160 0
160 285 0 285 0 0 -160z m0 -480 l0 -160 -285 0 -285 0 0 160 0 160 285 0 285
0 0 -160z m-2 -482 l-3 -163 -282 -3 -283 -2 0 165 0 165 285 0 285 0 -2 -162z
m2 -443 c0 -143 -10 -176 -61 -194 -20 -7 -122 -11 -270 -11 l-239 0 0 165 0
165 285 0 285 0 0 -125z"/>
<path d="M1040 2230 c-724 -5 -725 -5 -760 -27 -49 -30 -75 -60 -99 -113 -20
-44 -21 -62 -21 -726 0 -764 -2 -739 72 -813 77 -76 -32 -71 1532 -71 1388 0
1401 1 1446 21 55 25 95 62 123 114 22 40 22 42 22 745 l0 705 -28 47 c-34 58
-81 95 -143 114 -50 15 -503 16 -2144 4z m2137 -172 l23 -21 0 -679 c0 -662 0
-678 -20 -698 -11 -11 -30 -22 -42 -25 -13 -3 -643 -4 -1400 -3 l-1377 3 -23
23 -23 23 -3 657 c-1 361 0 667 3 680 3 12 14 31 25 42 20 20 39 20 1417 20
l1397 0 23 -22z"/>
<path d="M1000 1767 c-239 -54 -386 -288 -325 -520 22 -85 51 -134 114 -197
96 -95 230 -140 356 -120 161 26 283 152 215 220 -34 34 -71 30 -119 -12 -48
-42 -91 -58 -158 -58 -69 0 -142 31 -192 81 -102 102 -102 278 1 381 58 57
101 73 198 73 73 0 92 -4 136 -28 57 -31 89 -27 118 15 24 33 20 56 -16 92
-64 64 -217 98 -328 73z"/>
<path d="M1740 1769 c-178 -36 -259 -241 -145 -368 27 -29 62 -49 166 -91 72
-30 145 -64 160 -78 65 -54 17 -141 -83 -150 -72 -6 -127 11 -189 58 -30 22
-64 40 -77 40 -31 0 -72 -43 -72 -75 0 -37 62 -100 134 -135 179 -87 372 -42
449 104 29 56 29 146 0 201 -39 74 -93 111 -248 171 -100 38 -145 69 -145 99
0 9 13 30 29 46 26 26 36 29 89 29 50 0 72 -6 126 -35 77 -41 85 -42 120 -14
20 16 26 29 26 60 0 34 -5 43 -41 69 -82 59 -207 88 -299 69z"/>
<path d="M2283 1770 c-25 -10 -43 -39 -43 -69 0 -27 236 -709 256 -739 32 -49
119 -48 146 1 14 27 248 727 248 744 0 6 -11 24 -23 39 -29 33 -79 37 -106 8
-10 -10 -58 -138 -106 -284 -87 -260 -88 -264 -100 -230 -7 19 -47 134 -89
255 -88 255 -90 259 -123 274 -28 13 -30 13 -60 1z"/>
</g>
</svg>
