<?xml version="1.0" standalone="no"?>
<!DOCTYPE svg PUBLIC "-//W3C//DTD SVG 20010904//EN"
 "http://www.w3.org/TR/2001/REC-SVG-20010904/DTD/svg10.dtd">
<svg version="1.0" xmlns="http://www.w3.org/2000/svg"
 width="512.000000pt" height="512.000000pt" viewBox="0 0 512.000000 512.000000"
 preserveAspectRatio="xMidYMid meet">

<g transform="translate(0.000000,512.000000) scale(0.100000,-0.100000)"
fill="#000000" stroke="none">
<path d="M785 5033 c-35 -9 -77 -45 -91 -79 -12 -28 -14 -187 -14 -924 l0
-890 145 0 145 0 0 800 0 800 1270 0 1270 0 0 -512 c0 -484 2 -515 20 -555 11
-25 33 -51 52 -63 32 -19 49 -20 541 -20 l507 0 0 -1605 0 -1605 -1830 0
-1830 0 0 355 0 355 -145 0 -145 0 0 -445 c0 -491 0 -492 61 -536 l34 -24
2027 0 2027 0 27 21 c15 11 37 33 48 48 l21 27 0 1797 c0 1579 -2 1800 -15
1824 -20 35 -1125 1177 -1169 1209 l-35 24 -1450 1 c-798 1 -1460 0 -1471 -3z"/>
<path d="M433 2830 c-90 -18 -174 -85 -212 -170 -20 -43 -21 -64 -21 -546 l0
-501 31 -61 c32 -65 66 -99 133 -135 l41 -22 1727 -3 c1703 -2 1727 -2 1780
18 75 28 122 71 158 143 l31 63 -3 509 -3 510 -27 45 c-36 61 -83 104 -143
132 l-50 23 -1700 1 c-935 1 -1719 -2 -1742 -6z m1019 -307 c70 -32 141 -103
174 -176 28 -61 29 -65 29 -237 0 -169 -1 -177 -27 -233 -70 -148 -230 -227
-398 -197 -123 22 -214 93 -267 205 -27 58 -28 65 -28 225 1 147 3 171 23 221
39 98 118 170 225 205 63 21 210 13 269 -13z m891 -11 c67 -30 150 -112 178
-175 32 -72 40 -313 14 -403 -21 -74 -64 -136 -123 -179 -76 -56 -121 -65
-334 -65 l-188 0 0 426 0 426 203 -4 c181 -4 207 -6 250 -26z m1027 -52 l0
-80 -115 0 -115 0 -2 -347 -3 -348 -45 -3 c-25 -2 -69 -1 -97 3 l-53 6 0 345
0 344 -110 0 -110 0 0 80 0 80 325 0 325 0 0 -80z"/>
<path d="M1214 2371 c-17 -11 -41 -39 -53 -63 -19 -39 -21 -62 -21 -194 0
-136 2 -154 23 -194 32 -62 67 -85 132 -85 124 0 172 94 163 320 -6 126 -27
182 -81 215 -42 26 -121 26 -163 1z"/>
<path d="M2090 2109 l0 -272 77 6 c148 11 193 90 179 320 -9 163 -56 217 -188
217 l-68 0 0 -271z"/>
</g>
</svg>
