<?xml version="1.0" standalone="no"?>
<!DOCTYPE svg PUBLIC "-//W3C//DTD SVG 20010904//EN"
 "http://www.w3.org/TR/2001/REC-SVG-20010904/DTD/svg10.dtd">
<svg version="1.0" xmlns="http://www.w3.org/2000/svg"
 width="512.000000pt" height="512.000000pt" viewBox="0 0 512.000000 512.000000"
 preserveAspectRatio="xMidYMid meet">

<g transform="translate(0.000000,512.000000) scale(0.100000,-0.100000)"
fill="#000000" stroke="none">
<path d="M1294 5106 c-17 -8 -44 -31 -60 -52 -27 -35 -29 -45 -32 -145 l-4
-107 -108 -4 c-117 -3 -140 -12 -184 -72 -21 -27 -21 -34 -24 -1102 l-2 -1074
-193 0 c-151 0 -204 -3 -241 -16 -64 -22 -147 -100 -177 -166 l-24 -53 0 -800
0 -800 24 -50 c32 -63 92 -124 156 -155 47 -23 62 -25 252 -28 l202 -4 3 -188
c3 -206 6 -215 72 -264 l27 -21 1739 0 1739 0 27 21 c60 44 69 67 72 184 l4
108 108 4 c117 3 140 12 184 72 l21 27 0 2299 0 2299 -21 27 c-11 15 -33 37
-48 48 -27 21 -27 21 -1754 23 -1439 2 -1732 0 -1758 -11z m3436 -2386 l0
-2250 -85 0 -85 0 0 54 c0 39 -6 60 -21 80 -26 33 -73 35 -106 4 -23 -21 -23
-25 -23 -240 l0 -218 -1690 0 -1690 0 0 165 0 165 1261 0 c929 0 1272 3 1300
12 51 15 114 69 142 122 22 41 22 43 25 640 3 659 2 665 -57 737 -17 20 -51
46 -76 58 l-45 21 -1193 0 c-657 0 -1350 3 -1541 7 -395 7 -390 6 -433 93 -29
56 -29 84 0 140 41 81 51 85 273 88 l194 3 0 -50 c0 -27 3 -57 6 -66 10 -24
60 -46 89 -39 58 14 55 -56 55 1226 l0 1178 1250 0 1250 0 0 -350 c0 -387 1
-393 63 -459 66 -70 71 -71 465 -71 l352 0 0 -1460 0 -1461 25 -24 c31 -32 69
-32 100 0 l25 24 0 1528 c0 1511 -1 1528 -21 1573 -30 67 -754 792 -824 826
l-50 24 -1157 0 -1158 0 0 85 0 85 1690 0 1690 0 0 -2250z m-700 1545 l345
-345 -323 0 -323 0 -24 25 -25 24 0 321 c0 176 1 320 3 320 1 0 157 -155 347
-345z m-2008 -2345 l1537 -5 23 -23 23 -23 3 -565 c2 -378 -1 -578 -8 -604
-20 -76 104 -70 -1562 -70 -949 0 -1506 4 -1528 10 -45 12 -97 65 -110 111 -6
20 -10 268 -10 626 l0 592 48 -22 47 -22 1537 -5z"/>
<path d="M1849 3577 c-31 -16 -51 -36 -67 -67 l-23 -45 3 -515 c3 -576 0 -549
76 -600 l36 -25 845 0 846 0 37 23 c21 13 45 40 57 66 20 41 21 57 21 547 0
504 0 505 -22 549 -17 33 -35 51 -68 68 l-44 22 -827 0 -826 0 -44 -23z m501
-242 l0 -115 -215 0 -215 0 0 115 0 115 215 0 215 0 0 -115z m1178 -2 l3 -113
-516 0 -515 0 0 115 0 115 513 -2 512 -3 3 -112z m-1178 -373 l0 -110 -215 0
-215 0 0 110 0 110 215 0 215 0 0 -110z m1180 0 l0 -110 -515 0 -515 0 0 110
0 110 515 0 515 0 0 -110z m-1180 -370 l0 -110 -215 0 -215 0 0 110 0 110 215
0 215 0 0 -110z m1178 -2 l-3 -113 -510 0 -510 0 -3 113 -3 112 516 0 516 0
-3 -112z"/>
<path d="M1032 1610 c-41 -38 -30 -74 58 -198 l80 -114 -95 -136 c-54 -78 -95
-146 -95 -160 0 -56 50 -93 100 -72 17 7 55 52 100 116 40 58 76 107 80 109 4
3 42 -45 85 -106 95 -135 131 -154 185 -96 31 33 24 59 -41 154 -33 48 -77
111 -96 140 l-35 52 81 114 c89 126 98 157 58 195 -14 13 -36 22 -55 22 -34 0
-41 -8 -131 -133 l-48 -67 -63 90 c-35 50 -72 95 -81 101 -29 15 -64 10 -87
-11z"/>
<path d="M1689 1611 l-24 -19 -3 -305 -3 -305 25 -28 c23 -28 28 -29 131 -32
58 -2 117 -1 130 2 34 9 65 45 65 75 -1 54 -44 81 -129 81 l-61 0 0 234 c0
241 -6 288 -40 306 -29 16 -66 12 -91 -9z"/>
<path d="M2274 1606 c-89 -41 -136 -133 -113 -218 22 -84 50 -107 206 -169 90
-35 113 -53 113 -85 0 -34 -36 -54 -96 -54 -44 0 -61 6 -112 40 -33 22 -64 40
-70 40 -39 0 -82 -45 -82 -85 0 -29 70 -92 132 -120 46 -21 78 -28 127 -29 84
-1 134 17 188 67 87 80 91 200 9 282 -39 39 -58 48 -233 121 -40 16 -44 47 -8
70 33 21 92 13 155 -23 43 -24 50 -25 78 -14 34 14 57 59 47 90 -9 28 -63 68
-125 92 -70 27 -152 25 -216 -5z"/>
<path d="M2770 1610 c-38 -38 -27 -76 60 -199 l80 -113 -54 -77 c-29 -42 -72
-103 -95 -135 -55 -80 -53 -134 6 -157 45 -17 73 5 151 116 41 58 77 107 81
110 5 2 43 -45 86 -106 48 -68 87 -114 103 -120 58 -22 119 41 93 98 -6 14
-50 79 -96 145 -47 65 -85 121 -85 124 0 3 24 40 54 82 96 138 106 154 106
182 0 36 -38 70 -78 70 -33 0 -53 -21 -145 -153 l-34 -47 -66 94 c-37 52 -74
97 -83 100 -30 12 -64 6 -84 -14z"/>
<path d="M771 1069 c-67 -27 -69 -111 -2 -139 84 -35 143 93 61 135 -16 8 -30
15 -32 14 -2 0 -14 -5 -27 -10z"/>
</g>
</svg>
